<?xml version="1.0" encoding="UTF-8"?>
<svg id="Layer_1" xmlns="http://www.w3.org/2000/svg" version="1.1" viewBox="0 0 1920 1080">
  <!-- Generator: Adobe Illustrator 30.0.0, SVG Export Plug-In . SVG Version: 2.1.1 Build 123)  -->
  <defs>
    <style>
      .st0 {
        fill: #fff;
      }
    </style>
  </defs>
  <path class="st0" d="M1920,1080H0V0h1920v1080ZM651.38,595.09l-60.73-136.26h-34.06l-61.12,136.26h34.06l10.12-24.53h67.16l10.12,24.53h34.45ZM595.52,543.11h-44.38l22.38-53.72,22,53.72ZM708.41,496.79c-10.9,0-19.46,4.74-25.69,14.21l-2.34-12.07h-26.67v96.16h30.56v-46.72c0-8.04,1.88-14.14,5.65-18.3,3.76-4.15,8.89-6.23,15.38-6.23,2.59,0,5.06.39,7.4,1.17,2.33.78,4.87,2.01,7.59,3.7l12.85-22.38c-3.25-3.11-7.08-5.48-11.48-7.1-4.41-1.62-8.83-2.43-13.24-2.43ZM792.89,544.48l34.65-45.55h-34.84l-26.67,36.4v-76.5h-30.37v136.26h30.37v-38.15l29.39,38.15h37.76l-40.29-50.61ZM905.4,498.93l-1.95,11.29c-3.89-4.28-8.56-7.56-14.01-9.83-5.45-2.27-11.42-3.41-17.91-3.41-8.95,0-16.9,2.11-23.85,6.33-6.94,4.22-12.36,10.12-16.25,17.71-3.89,7.59-5.84,16.25-5.84,25.99s1.95,18.39,5.84,25.99c3.89,7.59,9.31,13.5,16.25,17.71,6.94,4.22,14.89,6.33,23.85,6.33,13.11,0,23.75-4.48,31.92-13.43l1.95,11.48h26.47v-96.16h-26.47ZM878.73,571.34c-6.75,0-12.23-2.27-16.45-6.81-4.22-4.54-6.33-10.38-6.33-17.52s2.11-12.98,6.33-17.52c4.21-4.54,9.7-6.81,16.45-6.81s12.26,2.24,16.54,6.72,6.42,10.35,6.42,17.62-2.14,13.14-6.42,17.62-9.8,6.72-16.54,6.72ZM1017.32,458.83v49.25c-8.05-7.4-17.97-11.1-29.78-11.1-8.95,0-16.9,2.11-23.85,6.33-6.94,4.22-12.36,10.12-16.25,17.71-3.89,7.59-5.84,16.25-5.84,25.99s1.95,18.39,5.84,25.99c3.89,7.59,9.31,13.5,16.25,17.71,6.94,4.22,14.89,6.33,23.85,6.33,13.11,0,23.75-4.48,31.92-13.43l1.95,11.48h26.47v-136.26h-30.56ZM994.74,571.34c-6.75,0-12.23-2.27-16.45-6.81-4.22-4.54-6.33-10.38-6.33-17.52s2.11-12.98,6.33-17.52c4.21-4.54,9.7-6.81,16.45-6.81s12.26,2.24,16.54,6.72,6.42,10.35,6.42,17.62-2.14,13.14-6.42,17.62-9.8,6.72-16.54,6.72ZM1078.64,489.39c5.32,0,9.63-1.56,12.94-4.67,3.31-3.11,4.96-7.07,4.96-11.87s-1.69-8.95-5.06-12.07c-3.38-3.11-7.66-4.67-12.85-4.67s-9.47,1.56-12.85,4.67c-3.38,3.11-5.06,7.14-5.06,12.07s1.65,8.76,4.96,11.87c3.31,3.11,7.62,4.67,12.94,4.67ZM1063.26,595.09h30.56v-96.16h-30.56v96.16ZM1183.36,498.93l-1.95,11.29c-3.89-4.28-8.56-7.56-14.01-9.83-5.45-2.27-11.42-3.41-17.91-3.41-8.95,0-16.9,2.11-23.85,6.33-6.94,4.22-12.36,10.12-16.25,17.71-3.89,7.59-5.84,16.25-5.84,25.99s1.95,18.39,5.84,25.99c3.89,7.59,9.31,13.5,16.25,17.71,6.94,4.22,14.89,6.33,23.85,6.33,13.11,0,23.75-4.48,31.92-13.43l1.95,11.48h26.47v-96.16h-26.47ZM1156.69,571.34c-6.75,0-12.23-2.27-16.45-6.81-4.22-4.54-6.33-10.38-6.33-17.52s2.11-12.98,6.33-17.52c4.21-4.54,9.7-6.81,16.45-6.81s12.26,2.24,16.54,6.72,6.42,10.35,6.42,17.62-2.14,13.14-6.42,17.62-9.8,6.72-16.54,6.72ZM1284.38,496.79c-6.36,0-12.17,1.17-17.42,3.5-5.26,2.34-9.77,5.64-13.53,9.93l-1.95-11.29h-26.47v96.16h30.56v-50.61c0-6.49,1.82-11.74,5.45-15.77,3.63-4.02,8.43-6.03,14.4-6.03,5.45,0,9.73,1.75,12.85,5.26s4.67,8.37,4.67,14.6v52.56h30.56v-54.31c0-13.75-3.54-24.53-10.61-32.31-7.07-7.79-16.58-11.68-28.52-11.68ZM1374.9,597.62c14.01,0,24.98-2.82,32.9-8.47,7.91-5.65,11.87-13.4,11.87-23.26,0-9.34-3.6-16.61-10.8-21.8-7.2-5.19-17.68-8.3-31.44-9.34-4.8-.52-8.21-1.3-10.22-2.34-2.01-1.04-3.02-2.53-3.02-4.48,0-4.67,4.93-7.01,14.79-7.01s18.62,2.08,25.89,6.23l11.87-20.44c-4.93-3.24-10.8-5.77-17.62-7.59-6.81-1.82-13.98-2.73-21.51-2.73-13.24,0-23.75,2.82-31.53,8.47s-11.68,13.27-11.68,22.87c0,8.83,3.6,15.96,10.8,21.41,7.2,5.45,16.9,8.5,29.1,9.15,5.45.39,9.34,1.17,11.68,2.34s3.5,2.92,3.5,5.26c0,4.54-4.22,6.81-12.65,6.81-6.1,0-12.23-.78-18.39-2.34-6.17-1.56-11.58-3.76-16.25-6.62l-11.68,21.02c12.59,8.56,27.38,12.85,44.38,12.85Z"/>
</svg>